<svg width="46" height="52" viewBox="0 0 46 52" fill="none" xmlns="http://www.w3.org/2000/svg">
<g id="benefit">
<path id="anchor" d="M23.0037 51.23C23.6629 51.23 24.2279 50.665 24.2279 50.0058V49.2053C35.4815 48.5932 44.5692 39.5997 45.1814 28.2047C45.1814 27.8751 45.0872 27.5456 44.8517 27.3101C44.6163 27.0747 44.2867 26.9334 43.9571 26.9334H40.2844C39.6252 26.9334 39.0601 27.4985 39.0601 28.1577C39.0601 28.8169 39.6252 29.3819 40.2844 29.3819H42.6387C41.5557 38.8463 33.7864 46.1918 24.2279 46.8039V17.0924H32.0913C32.7505 17.0924 33.3156 16.5273 33.3156 15.8681C33.3156 15.2089 32.7505 14.6439 32.0913 14.6439H24.2279V8.38138C25.9701 7.86343 27.2885 6.21539 27.2885 4.28485C27.2885 1.93053 25.358 0 23.0037 0C20.6493 0 18.7188 1.93053 18.7188 4.28485C18.7188 6.21539 19.9901 7.86343 21.7794 8.38138V14.6439H13.916C13.2568 14.6439 12.6917 15.2089 12.6917 15.8681C12.6917 16.5273 13.2568 17.0924 13.916 17.0924H21.7794V46.8039C12.2209 46.2388 4.49868 38.8934 3.4157 29.3819H5.77002C6.42923 29.3819 6.99428 28.8169 6.99428 28.1577C6.99428 27.4985 6.42923 26.9334 5.77002 26.9334H2.09728C1.76768 26.9334 1.43809 27.0747 1.20266 27.3101C0.967225 27.5456 0.873047 27.8751 0.873047 28.2047C1.43808 39.5997 10.5258 48.5932 21.8265 49.2053V50.0058C21.7794 50.665 22.2974 51.23 23.0037 51.23ZM21.1673 4.19067C21.1673 3.20186 21.9678 2.35432 23.0037 2.35432C23.9925 2.35432 24.84 3.15477 24.84 4.19067C24.84 5.17949 24.0396 6.02706 23.0037 6.02706C21.9678 6.02706 21.1673 5.22657 21.1673 4.19067Z" fill="#333333"/>
</g>
</svg>
