<svg width="52" height="46" viewBox="0 0 52 46" fill="none" xmlns="http://www.w3.org/2000/svg">
<g id="cart">
<path id="cart_2" d="M40.3459 40.2589C40.3459 37.575 38.1328 35.3619 35.4489 35.3619C33.1887 35.3619 31.2582 36.9158 30.7402 39.0346H28.5272C27.9621 36.9158 26.0787 35.3619 23.8185 35.3619C21.5584 35.3619 19.6278 36.9158 19.1099 39.0346H18.9686V32.5838H40.393C40.8638 32.5838 41.2405 32.3484 41.4759 31.9246L51.3641 13.5609C51.5524 13.1842 51.5524 12.7133 51.317 12.3366C51.0816 11.96 50.7049 11.7245 50.2811 11.7245H12.2824L8.51545 0.800475C8.32711 0.329611 7.90333 0 7.33829 0H1.40542C0.746207 0 0.181152 0.565026 0.181152 1.22424C0.181152 1.88345 0.746207 2.4485 1.40542 2.4485H6.49074L16.5201 31.5479V40.2589C16.5201 40.9181 17.0852 41.4831 17.7444 41.4831H19.1099C19.6749 43.602 21.5584 45.1559 23.8185 45.1559C26.0787 45.1559 28.0092 43.602 28.5272 41.4831H30.7402C31.3053 43.602 33.1887 45.1559 35.4489 45.1559C38.1328 45.1559 40.3459 42.9899 40.3459 40.2589ZM48.1622 14.2201L39.5925 30.1353H18.5449L13.0358 14.2201H48.1622ZM23.8185 42.7074C22.453 42.7074 21.37 41.6244 21.37 40.2589C21.37 38.8934 22.453 37.8104 23.8185 37.8104C25.184 37.8104 26.267 38.8934 26.267 40.2589C26.267 41.6244 25.137 42.7074 23.8185 42.7074ZM35.4489 42.7074C34.0834 42.7074 33.0004 41.6244 33.0004 40.2589C33.0004 38.8934 34.0834 37.8104 35.4489 37.8104C36.8144 37.8104 37.8974 38.8934 37.8974 40.2589C37.8974 41.6244 36.8144 42.7074 35.4489 42.7074Z" fill="#333333"/>
</g>
</svg>
