<svg width="46" height="52" viewBox="0 0 46 52" fill="none" xmlns="http://www.w3.org/2000/svg">
<g id="cs">
<path id="cs_2" d="M10.8084 43.037C11.4677 43.037 12.0327 42.4719 12.0327 41.8127V23.7316C12.0327 23.0723 11.4677 22.5073 10.8084 22.5073C8.97207 22.5073 7.1357 23.0253 5.53476 23.967C4.54595 24.532 3.69839 25.2854 2.9921 26.0859C3.13336 18.4108 5.58185 2.44849 23.1451 2.44849C35.5288 2.44849 43.0155 11.2537 43.2981 26.0388C42.5918 25.2383 41.7442 24.4849 40.7554 23.9199C39.1545 22.9782 37.3652 22.4602 35.4817 22.4602C34.8225 22.4602 34.2575 23.0253 34.2575 23.6845V41.7186C34.2575 42.3778 34.8225 42.9428 35.4817 42.9428C36.4234 42.9428 37.3652 42.8016 38.2598 42.5661V45.4855L28.9838 48.9228C28.3717 49.1582 28.0421 49.8645 28.2775 50.4766C28.4658 50.9475 28.9367 51.2771 29.4076 51.2771C29.5488 51.2771 29.6901 51.23 29.8314 51.1829L39.9078 47.4631C40.3787 47.2748 40.7083 46.851 40.7083 46.333V41.5302C43.7218 39.7409 45.7466 36.4449 45.7466 32.7251V26.8393C45.7466 19.3054 43.9102 12.8075 40.4729 8.14595C36.5176 2.82519 30.5377 0 23.1922 0C15.6113 0 9.77254 2.68393 5.81728 8.00469C2.37997 12.6192 0.590689 19.1171 0.590689 26.8393V32.7251C0.543603 38.4225 5.15807 43.037 10.8084 43.037ZM36.706 40.4943V25.0971C37.6948 25.2383 38.6365 25.615 39.4841 26.133C41.8384 27.5456 43.2981 30.0411 43.2981 32.8192C43.2981 36.6803 40.4258 39.8822 36.706 40.4943ZM6.75901 26.0859C7.60657 25.5679 8.5483 25.2383 9.53711 25.05V40.4472C5.81728 39.8822 2.94501 36.6332 2.94501 32.7251C2.9921 29.994 4.40469 27.4985 6.75901 26.0859Z" fill="#333333"/>
</g>
</svg>
