<svg width="36" height="46" viewBox="0 0 36 46" fill="none" xmlns="http://www.w3.org/2000/svg">
<g id="member">
<path id="member_2" d="M0.746582 28.2989V43.9316C0.746582 44.5908 1.31161 45.1559 1.97082 45.1559H34.6488C35.308 45.1559 35.873 44.5908 35.873 43.9316V28.2989C35.873 25.3325 34.4134 22.6486 31.9178 21.0947C30.1756 19.9646 28.2921 19.1171 26.3145 18.4579C28.9513 15.5856 29.8931 11.6303 28.6688 7.72217C27.2091 3.06061 23.1597 0.0470864 18.3098 0C18.3098 0 18.3098 0 18.2627 0C13.4128 0.0470864 9.3634 3.1077 7.90372 7.72217C6.67948 11.5833 7.6212 15.5856 10.258 18.4579C8.3275 19.1171 6.44403 20.0117 4.65475 21.0947C2.25334 22.6486 0.746582 25.3325 0.746582 28.2989ZM6.02027 23.1665C8.18624 21.801 10.5876 20.8122 13.0832 20.2001C13.5541 20.1059 13.9308 19.7292 14.025 19.2583C14.1191 18.7875 13.9308 18.3166 13.5541 18.0341C9.78718 15.3973 9.41049 11.3478 10.3522 8.47555C11.2469 5.60328 13.8366 2.49559 18.404 2.4485C22.1709 2.49559 25.3257 4.8499 26.4558 8.47555C27.3504 11.3478 26.9737 15.3973 23.2068 18.0341C22.8301 18.3166 22.6418 18.7875 22.7359 19.2583C22.8301 19.7292 23.2068 20.1059 23.6777 20.2001C26.1733 20.7651 28.5276 21.7539 30.7406 23.1665C32.4828 24.2966 33.5658 26.2271 33.5658 28.2989V42.7074H3.33633V28.2989C3.19508 26.18 4.27807 24.2495 6.02027 23.1665Z" fill="#333333"/>
</g>
</svg>
